HIERARCHY
ROOT Hips
{
    OFFSET 0.0 0.0 0.0
    CHANNELS 6 Xposition Yposition Zposition Zrotation Xrotation Yrotation
    JOINT Chest
    {
        OFFSET 0.0 10.0 0.0
        CHANNELS 3 Zrotation Xrotation Yrotation
        JOINT Neck
        {
            OFFSET 0.0 10.0 0.0
            CHANNELS 3 Zrotation Xrotation Yrotation
            JOINT Head
            {
                OFFSET 0.0 5.0 0.0
                CHANNELS 3 Zrotation Xrotation Yrotation
                End Site
                {
                    OFFSET 0.0 5.0 0.0
                }
            }
        }
        JOINT LeftShoulder
        {
            OFFSET -5.0 8.0 0.0
            CHANNELS 3 Zrotation Xrotation Yrotation
            JOINT LeftElbow
            {
                OFFSET -10.0 0.0 0.0
                CHANNELS 3 Zrotation Xrotation Yrotation
                JOINT LeftWrist
                {
                    OFFSET -10.0 0.0 0.0
                    CHANNELS 3 Zrotation Xrotation Yrotation
                    End Site
                    {
                        OFFSET -3.0 0.0 0.0
                    }
                }
            }
        }
        JOINT RightShoulder
        {
            OFFSET 5.0 8.0 0.0
            CHANNELS 3 Zrotation Xrotation Yrotation
            JOINT RightElbow
            {
                OFFSET 10.0 0.0 0.0
                CHANNELS 3 Zrotation Xrotation Yrotation
                JOINT RightWrist
                {
                    OFFSET 10.0 0.0 0.0
                    CHANNELS 3 Zrotation Xrotation Yrotation
                    End Site
                    {
                        OFFSET 3.0 0.0 0.0
                    }
                }
            }
        }
    }
    JOINT LeftHip
    {
        OFFSET -5.0 0.0 0.0
        CHANNELS 3 Zrotation Xrotation Yrotation
        JOINT LeftKnee
        {
            OFFSET 0.0 -15.0 0.0
            CHANNELS 3 Zrotation Xrotation Yrotation
            JOINT LeftAnkle
            {
                OFFSET 0.0 -15.0 0.0
                CHANNELS 3 Zrotation Xrotation Yrotation
                End Site
                {
                    OFFSET 0.0 -3.0 5.0
                }
            }
        }
    }
    JOINT RightHip
    {
        OFFSET 5.0 0.0 0.0
        CHANNELS 3 Zrotation Xrotation Yrotation
        JOINT RightKnee
        {
            OFFSET 0.0 -15.0 0.0
            CHANNELS 3 Zrotation Xrotation Yrotation
            JOINT RightAnkle
            {
                OFFSET 0.0 -15.0 0.0
                CHANNELS 3 Zrotation Xrotation Yrotation
                End Site
                {
                    OFFSET 0.0 -3.0 5.0
                }
            }
        }
    }
}

MOTION
Frames: 8
Frame Time: 0.03333333333333333
-77.981309 -20.779682 -0.005475 0.000000 0.000000 8.324906 0.000000 -4.790458 8.935247 0.000000 0.000000 0.000000 0.000000 -7.460733 -4.829334 0.000000 0.000000 0.000000 0.000000 -3.984706 177.337283 0.000000 10.143656 170.487745 0.000000 0.000000 0.000000 0.000000 72.553815 -172.537642 0.000000 51.165088 -66.883024 0.000000 0.000000 0.000000 0.000000 0.816385 178.429159 0.000000 2.723010 175.598272 0.000000 0.000000 0.000000 0.000000 2.577507 177.772275 0.000000 0.115533 179.372621
-77.816106 -22.235424 -0.000071 0.000000 0.000000 8.064516 0.000000 -4.468635 8.359946 0.000000 0.000000 0.000000 0.000000 -0.507902 -1.168240 0.000000 0.000000 0.000000 0.000000 -11.283063 -171.739989 0.000000 17.942964 178.890005 0.000000 0.000000 0.000000 0.000000 79.391807 -156.328828 0.000000 41.130956 -71.103709 0.000000 0.000000 0.000000 0.000000 -3.254484 -177.742709 0.000000 1.241252 -179.417806 0.000000 0.000000 0.000000 0.000000 3.645217 -177.290751 0.000000 -2.509239 -177.864582
-77.402988 -23.078822 -0.010388 0.000000 0.000000 7.470975 0.000000 -4.267488 7.682433 0.000000 0.000000 0.000000 0.000000 0.887436 -7.289398 0.000000 0.000000 0.000000 0.000000 -9.014212 -170.874272 0.000000 13.992538 -168.721274 0.000000 0.000000 0.000000 0.000000 49.883426 -174.400442 0.000000 26.572520 -151.213337 0.000000 0.000000 0.000000 0.000000 -5.043085 -177.304494 0.000000 0.816651 -179.008212 0.000000 0.000000 0.000000 0.000000 2.866144 -176.462400 0.000000 -4.822740 -178.136515
-76.507625 -24.548324 -0.004728 0.000000 0.000000 6.277127 0.000000 -2.922373 6.532240 0.000000 0.000000 0.000000 0.000000 0.467898 -5.365754 0.000000 0.000000 0.000000 0.000000 -6.829434 -172.880663 0.000000 11.782073 -179.753348 0.000000 0.000000 0.000000 0.000000 34.690503 -175.113560 0.000000 15.069465 -157.001386 0.000000 0.000000 0.000000 0.000000 -2.455613 -175.759498 0.000000 0.390260 -179.345732 0.000000 0.000000 0.000000 0.000000 5.624930 -175.308718 0.000000 -6.100738 -178.194444
-76.570639 -23.568549 0.040846 0.000000 0.000000 6.407318 0.000000 -3.757569 7.317233 0.000000 0.000000 0.000000 0.000000 0.546145 0.945703 0.000000 0.000000 0.000000 0.000000 12.625030 -167.378288 0.000000 52.287818 -50.026087 0.000000 0.000000 0.000000 0.000000 76.877991 -134.447015 0.000000 13.365989 -59.063442 0.000000 0.000000 0.000000 0.000000 -1.492951 177.513893 0.000000 -0.083410 174.722266 0.000000 0.000000 0.000000 0.000000 -1.832398 176.638159 0.000000 -3.668447 176.300883
-75.966382 -23.375864 0.009684 0.000000 0.000000 6.090877 0.000000 -3.049058 5.734131 0.000000 0.000000 0.000000 0.000000 -3.743552 -1.460897 0.000000 0.000000 0.000000 0.000000 -0.170436 -171.915580 0.000000 15.193312 -177.759340 0.000000 0.000000 0.000000 0.000000 80.228179 -91.165796 0.000000 12.151640 -75.404320 0.000000 0.000000 0.000000 0.000000 -1.244916 179.042569 0.000000 0.724224 177.270231 0.000000 0.000000 0.000000 0.000000 -0.346184 178.573574 0.000000 -2.699406 178.258578
-75.779547 -24.856614 0.031154 0.000000 0.000000 6.518947 0.000000 -3.581043 6.719316 0.000000 0.000000 0.000000 0.000000 -1.457121 -0.043967 0.000000 0.000000 0.000000 0.000000 -3.721220 -177.554491 0.000000 18.734980 158.748268 0.000000 0.000000 0.000000 0.000000 62.868482 -159.146848 0.000000 1.923479 -12.225988 0.000000 0.000000 0.000000 0.000000 -0.431479 179.201920 0.000000 0.745641 176.481209 0.000000 0.000000 0.000000 0.000000 2.150261 177.367833 0.000000 -2.519686 178.067484
-76.004013 -24.653057 0.021802 0.000000 0.000000 6.169704 0.000000 -4.449444 6.988062 0.000000 0.000000 0.000000 0.000000 -2.147451 -1.497757 0.000000 0.000000 0.000000 0.000000 1.000918 -166.265308 0.000000 19.168919 -164.804273 0.000000 0.000000 0.000000 0.000000 75.107238 -121.126310 0.000000 18.296786 -27.817222 0.000000 0.000000 0.000000 0.000000 1.592016 -176.665664 0.000000 2.362063 175.663982 0.000000 0.000000 0.000000 0.000000 4.263120 177.640522 0.000000 -1.862435 178.438775
